<?xml version="1.0" encoding="utf-8" ?>
<svg xmlns="http://www.w3.org/2000/svg" xmlns:xlink="http://www.w3.org/1999/xlink" width="1024" height="1024">
	<path fill="#fff0" d="M0 0L1024 0L1024 1024L0 1024L0 0Z"/>
	<path fill="#FFDE4D" d="M444.022 37.6998C444.115 37.6906 444.208 37.678 444.301 37.672C457.715 36.8104 471.86 38.2717 484.666 42.4112C504.301 48.7579 523.493 58.1196 542.55 66.0683L651.74 111.62L786.874 168.251L834.004 188.078C843.318 191.971 852.814 195.532 861.907 199.926Q867.736 202.731 873.156 206.262Q878.576 209.793 883.497 213.992Q884.611 214.922 885.702 215.88Q886.792 216.837 887.859 217.822Q888.925 218.806 889.967 219.817Q891.008 220.828 892.024 221.865Q893.04 222.901 894.03 223.963Q895.02 225.024 895.983 226.11Q896.946 227.196 897.882 228.305Q898.817 229.415 899.725 230.547Q900.633 231.68 901.512 232.834Q902.391 233.989 903.242 235.165Q904.092 236.342 904.912 237.539Q905.733 238.736 906.523 239.953Q907.314 241.171 908.074 242.407Q908.833 243.644 909.562 244.899Q910.291 246.154 910.988 247.427Q911.686 248.7 912.351 249.99Q913.016 251.28 913.649 252.586Q914.282 253.892 914.882 255.213Q915.483 256.535 916.05 257.871Q916.617 259.207 917.15 260.556Q917.684 261.906 918.184 263.269Q918.683 264.632 919.149 266.006Q919.615 267.381 920.046 268.767Q920.477 270.153 920.874 271.549Q921.27 272.945 921.632 274.35Q921.993 275.756 922.32 277.17Q922.646 278.584 922.937 280.006Q923.228 281.428 923.484 282.857Q923.739 284.286 923.959 285.72Q924.179 287.155 924.363 288.595Q924.547 290.034 924.695 291.478Q924.843 292.922 924.955 294.369Q925.199 297.3 925.293 300.24Q925.386 303.179 925.329 306.12Q925.271 309.06 925.063 311.994Q924.854 314.928 924.495 317.847Q924.136 320.766 923.628 323.663Q923.12 326.56 922.463 329.427Q921.807 332.294 921.004 335.123Q920.201 337.953 919.254 340.737C916.583 348.386 913.05 355.794 909.922 363.267L886.863 417.326L811.08 595.62L731.795 782.265L694.288 870.53C687.312 886.992 680.966 903.961 673.283 920.096Q671.661 923.508 669.818 926.807Q667.976 930.105 665.921 933.276Q663.865 936.446 661.607 939.475Q659.348 942.503 656.895 945.377C636.827 968.907 609.737 981.867 579.123 984.264Q576.679 984.432 574.23 984.484Q571.78 984.536 569.332 984.47Q566.883 984.405 564.44 984.223Q561.997 984.041 559.565 983.743Q557.133 983.445 554.719 983.031Q552.304 982.617 549.912 982.089Q547.52 981.56 545.156 980.918Q542.792 980.276 540.461 979.522C531.082 976.487 522.037 972.265 512.941 968.475L474.664 952.807L357.562 904.731L226.172 851.603L188.478 836.494C180.396 833.296 172.11 830.319 164.222 826.669Q158.03 823.785 152.229 820.178Q146.428 816.572 141.102 812.294Q139.999 811.42 138.918 810.52Q137.837 809.62 136.778 808.693Q135.72 807.766 134.684 806.813Q133.649 805.861 132.637 804.883Q131.625 803.905 130.638 802.903Q129.651 801.901 128.688 800.874Q127.726 799.848 126.789 798.798Q125.852 797.748 124.941 796.676Q124.031 795.603 123.147 794.509Q122.263 793.414 121.406 792.298Q120.549 791.182 119.72 790.046Q118.891 788.909 118.09 787.752Q117.289 786.595 116.517 785.419Q115.745 784.243 115.002 783.048Q114.259 781.853 113.545 780.641Q112.832 779.428 112.149 778.198Q111.465 776.968 110.813 775.722Q110.16 774.475 109.538 773.213Q108.916 771.951 108.325 770.674Q107.735 769.397 107.175 768.106Q106.616 766.815 106.089 765.51Q105.562 764.206 105.067 762.889Q104.572 761.572 104.11 760.243Q103.648 758.914 103.218 757.574Q102.789 756.234 102.392 754.884Q101.996 753.534 101.633 752.175Q101.27 750.816 100.941 749.448Q100.611 748.08 100.316 746.704Q100.02 745.329 99.7581 743.947Q99.4964 742.564 99.2687 741.176Q99.0411 739.787 98.8477 738.394Q98.6543 737 98.4953 735.602Q98.1637 732.703 97.993 729.79Q97.8222 726.877 97.8129 723.96Q97.8035 721.042 97.9556 718.128Q98.1077 715.214 98.4208 712.313Q98.7338 709.412 99.2069 706.533Q99.6799 703.654 100.312 700.805Q100.943 697.956 101.731 695.147Q102.52 692.337 103.462 689.576C106.454 680.665 110.4 672.029 114.108 663.397L130.947 624.347L177.171 514.358L295.069 235.031L331.016 150.217Q336.549 137.272 341.935 124.265C348.555 108.136 354.583 92.7505 365.803 79.0663C385.65 54.8602 412.951 40.6431 444.022 37.6998Z"/>
	<path fill="#BFA63C" d="M815.529 237.236C816.821 232.105 819.65 227.023 821.993 222.295C827.201 211.78 833.223 201.371 837.837 190.607Q838.775 191.541 839.69 192.497Q840.605 193.454 841.497 194.432Q842.388 195.41 843.256 196.41Q844.123 197.41 844.966 198.431Q845.808 199.452 846.626 200.493Q847.443 201.534 848.235 202.595Q849.027 203.656 849.792 204.736Q850.558 205.815 851.297 206.914Q852.036 208.012 852.748 209.128Q853.46 210.243 854.145 211.376Q854.829 212.509 855.486 213.659Q856.143 214.808 856.771 215.973Q857.399 217.138 857.999 218.318Q858.599 219.498 859.17 220.692Q859.74 221.887 860.282 223.094Q860.823 224.302 861.335 225.523Q861.847 226.744 862.329 227.977Q862.81 229.21 863.262 230.454Q863.714 231.698 864.135 232.953Q864.556 234.208 864.946 235.473Q865.336 236.738 865.695 238.012Q866.054 239.286 866.382 240.568Q866.71 241.851 867.007 243.141Q867.304 244.431 867.569 245.728Q867.834 247.025 868.067 248.327Q868.3 249.63 868.502 250.939Q868.703 252.247 868.872 253.56Q869.042 254.873 869.179 256.189Q869.316 257.506 869.421 258.825Q869.526 260.145 869.599 261.466Q869.672 262.788 869.712 264.111Q869.753 265.434 869.761 266.758C869.848 278.289 867.747 289.042 864.074 299.945C860.936 309.261 856.951 318.32 853.178 327.392L834.008 373.006L777.248 509.695Q727.635 630.648 675.238 750.422Q656.012 795.737 635.672 840.563C630.121 852.717 624.842 865.174 618.666 877.018C613.614 886.709 607.191 895.922 599.479 903.686C582.444 920.836 559.676 933.329 535.024 933.326Q531.375 933.294 527.741 932.965Q524.107 932.636 520.512 932.011Q516.917 931.386 513.385 930.47Q509.852 929.554 506.407 928.352C497.379 925.251 488.651 921.146 479.892 917.362Q466.03 911.428 452.05 905.778L333.052 856.453L240.182 818.67C227.431 813.431 214.167 808.913 201.81 802.813Q198.694 801.304 195.719 799.534Q192.743 797.764 189.93 795.746Q187.117 793.729 184.486 791.478Q181.855 789.228 179.426 786.761C165.995 773.051 157.276 752.365 157.507 733.11C157.554 729.129 157.853 723.551 159.835 720.053C162.471 725.956 165.546 731.401 169.633 736.434Q170.79 737.859 172.021 739.22Q173.253 740.581 174.556 741.874Q175.859 743.166 177.23 744.387Q178.6 745.608 180.034 746.754Q181.468 747.899 182.962 748.966Q184.455 750.033 186.004 751.018Q187.553 752.003 189.152 752.904Q190.752 753.805 192.397 754.618C198.231 757.48 204.566 759.604 210.611 761.997L245.649 775.96L356.663 820.984Q397.103 837.21 437.137 854.415L473.038 869.635C480.575 872.829 488.091 876.273 495.769 879.11C502.754 881.692 510.012 883.748 517.447 884.451C534.644 886.078 552.598 881.417 565.983 870.249C572.806 864.556 577.906 858.037 581.814 850.071C587.809 837.85 592.905 825.027 598.394 812.56Q618.121 767.75 637.355 722.726Q706.866 561.966 773.939 400.174Q786.912 369.771 800.585 339.676C807.972 323.22 826.79 286.248 828.01 270.515C829.013 257.581 823.74 246.864 815.529 237.236Z"/>
	<path fill="#FBFBFB" d="M159.835 720.053C156.392 711.272 154.375 701.798 154.71 692.338C155.014 683.746 157.008 675.47 160.031 667.446C165.016 654.215 171.119 641.207 176.656 628.183L209.671 550.674L289.591 360.781L356.904 200.686L379.384 146.899C383.746 136.421 387.793 125.627 392.688 115.388Q394.029 112.638 395.622 110.026Q397.214 107.414 399.044 104.962Q400.874 102.51 402.925 100.24Q404.976 97.9704 407.231 95.9024Q408.346 94.8923 409.509 93.9387Q410.673 92.9851 411.882 92.0902Q413.092 91.1954 414.344 90.3614Q415.596 89.5275 416.888 88.7566Q418.18 87.9857 419.508 87.2797Q420.836 86.5737 422.198 85.9343Q423.56 85.2949 424.952 84.7237Q426.343 84.1525 427.762 83.6509Q429.18 83.1493 430.621 82.7185Q432.063 82.2877 433.524 81.9288Q434.985 81.5698 436.462 81.2837Q437.939 80.9975 439.428 80.7848Q440.917 80.5721 442.415 80.4334Q443.913 80.2947 445.416 80.2302Q446.919 80.1658 448.424 80.1759Q449.928 80.186 451.43 80.2705Q456.23 80.548 460.941 81.5049Q465.652 82.4619 470.18 84.0788C476.103 86.2125 481.804 89.0457 487.642 91.4187Q510.857 100.703 533.922 110.351L654.914 160.581L732.211 192.417C748.898 199.178 766.165 205.351 782.284 213.378C794.32 219.372 806.568 227.09 815.529 237.236C823.74 246.864 829.013 257.581 828.01 270.515C826.79 286.248 807.972 323.22 800.585 339.676Q786.912 369.771 773.939 400.174Q706.865 561.966 637.355 722.726Q618.121 767.75 598.394 812.56C592.905 825.027 587.809 837.85 581.814 850.071C577.906 858.037 572.806 864.556 565.983 870.249C552.598 881.417 534.644 886.078 517.447 884.451C510.012 883.748 502.754 881.692 495.769 879.11C488.091 876.273 480.575 872.829 473.038 869.635L437.137 854.415Q397.103 837.21 356.663 820.984L245.649 775.96L210.611 761.997C204.566 759.604 198.231 757.48 192.397 754.618Q190.752 753.805 189.152 752.904Q187.553 752.003 186.004 751.018Q184.455 750.033 182.962 748.966Q181.468 747.899 180.034 746.754Q178.6 745.608 177.23 744.387Q175.859 743.166 174.556 741.874Q173.253 740.581 172.021 739.22Q170.79 737.859 169.633 736.434C165.546 731.401 162.471 725.956 159.835 720.053Z"/>
	<path fill="#234" d="M537.82 150.551C540.093 150.431 541.879 150.913 543.979 151.693C549.982 153.922 555.834 156.722 561.733 159.226Q582.316 167.9 602.796 176.813C630.131 188.517 657.779 199.578 685.051 211.4C688.992 213.109 692.245 215.423 693.758 219.612Q693.966 220.192 694.112 220.79Q694.258 221.388 694.341 221.999Q694.425 222.609 694.444 223.224Q694.463 223.84 694.418 224.454Q694.374 225.068 694.265 225.675Q694.157 226.281 693.986 226.872Q693.815 227.464 693.583 228.035Q693.352 228.605 693.062 229.149C691.155 232.764 688.408 234.301 684.649 235.524C682.313 235.607 680.511 235.366 678.282 234.586C670.827 231.977 663.513 228.469 656.244 225.371Q635.349 216.349 614.327 207.624Q586.284 196.118 558.488 184.028C550.656 180.677 541.894 177.918 534.46 173.814C531.721 172.302 529.673 170.461 528.383 167.534C527.057 164.525 527.134 161.177 528.469 158.184C530.4 153.855 533.616 152.095 537.82 150.551Z"/>
	<path fill="#FFDE4D" d="M370.279 718.635C380.599 717.639 390.349 720.257 398.846 726.178C408.215 732.708 415.173 743.558 417.089 754.836Q417.261 755.843 417.382 756.856Q417.504 757.87 417.574 758.889Q417.645 759.908 417.665 760.929Q417.684 761.95 417.653 762.97Q417.621 763.991 417.539 765.009Q417.457 766.026 417.323 767.039Q417.19 768.051 417.007 769.056Q416.823 770.06 416.59 771.054Q416.356 772.048 416.073 773.03Q415.79 774.011 415.459 774.977Q415.127 775.942 414.748 776.89Q414.369 777.839 413.942 778.766Q413.516 779.694 413.044 780.6Q412.572 781.505 412.055 782.386Q411.538 783.267 410.978 784.12Q410.418 784.974 409.816 785.799C403.08 795.049 393.226 800.115 382.082 801.836Q381.13 801.965 380.174 802.05Q379.217 802.134 378.258 802.175Q377.298 802.215 376.338 802.211Q375.378 802.206 374.418 802.158Q373.459 802.109 372.503 802.015Q371.548 801.922 370.597 801.785Q369.647 801.647 368.704 801.466Q367.761 801.285 366.827 801.06Q365.893 800.835 364.971 800.567Q364.049 800.299 363.14 799.988Q362.231 799.678 361.338 799.326Q360.445 798.973 359.568 798.58Q358.692 798.187 357.835 797.753Q356.978 797.32 356.143 796.847Q355.307 796.374 354.494 795.863Q353.68 795.352 352.892 794.804Q352.024 794.188 351.187 793.53Q350.35 792.872 349.546 792.174Q348.742 791.476 347.973 790.74Q347.203 790.003 346.471 789.231Q345.738 788.458 345.044 787.651Q344.35 786.843 343.696 786.003Q343.042 785.163 342.43 784.292Q341.818 783.421 341.249 782.521Q340.679 781.621 340.155 780.695Q339.63 779.769 339.151 778.818Q338.671 777.867 338.239 776.894Q337.807 775.921 337.422 774.928Q337.038 773.936 336.702 772.925Q336.366 771.915 336.08 770.889Q335.793 769.864 335.557 768.826Q335.321 767.787 335.136 766.739C333.228 755.765 336.223 743.853 342.701 734.828C349.42 725.47 359.104 720.506 370.279 718.635Z"/>
	<path fill="#FFB22C" d="M718.707 423.071L721.224 422.651C720.278 426.266 718.225 429.905 716.738 433.353Q712.061 444.366 707.224 455.309L680.006 519.505L611.78 679.946L591.166 727.524C587.463 736.107 584.078 744.936 579.962 753.327C577.557 758.229 575.072 762.5 570.232 765.43C564.527 768.885 557.868 769.879 551.447 768.115C544.793 766.286 538.393 763.177 532.058 760.466L502.952 748.139L377.324 695.038L285.589 657.205C273.298 652.123 258.209 647.021 246.602 641.037C240.612 637.949 235.545 633.302 232.305 627.352C230.674 624.357 229.165 620.129 229.485 616.679C238.096 613.511 246.551 609.767 255.084 606.38L315.078 582.738L570.209 482.404C588.496 475.246 715.26 426.317 718.707 423.071Z"/>
	<path fill="#FBFBFB" d="M542.746 553.606C552.165 552.741 561.335 553.876 569.413 559.134C577.324 564.282 583.465 572.865 585.342 582.149Q585.52 583.017 585.654 583.893Q585.788 584.769 585.879 585.651Q585.969 586.533 586.016 587.418Q586.063 588.303 586.065 589.189Q586.068 590.076 586.027 590.961Q585.985 591.846 585.9 592.728Q585.815 593.611 585.686 594.487Q585.557 595.364 585.385 596.234Q585.213 597.103 584.998 597.963Q584.782 598.823 584.525 599.671Q584.267 600.519 583.968 601.353Q583.668 602.187 583.328 603.005Q582.988 603.824 582.607 604.624Q582.226 605.425 581.806 606.205Q581.386 606.986 580.928 607.744Q580.47 608.503 579.975 609.238C573.599 618.554 564.344 623.312 553.438 625.367Q552.594 625.472 551.746 625.541Q550.898 625.61 550.048 625.643Q549.198 625.676 548.348 625.672Q547.497 625.669 546.648 625.629Q545.798 625.59 544.951 625.514Q544.104 625.438 543.26 625.326Q542.417 625.215 541.579 625.067Q540.742 624.92 539.911 624.736Q539.08 624.553 538.258 624.335Q537.436 624.117 536.624 623.864Q535.812 623.611 535.011 623.323Q534.211 623.036 533.423 622.715Q532.636 622.393 531.862 622.039Q531.089 621.684 530.332 621.297Q529.574 620.91 528.834 620.491Q528.094 620.072 527.372 619.622C518.996 614.426 513.056 606.428 510.858 596.783C508.826 587.869 510.866 578.192 515.785 570.547C522.044 560.822 531.737 555.959 542.746 553.606Z"/>
</svg>
